<svg width="4930" height="25" viewBox="0 0 4930 25" fill="none" xmlns="http://www.w3.org/2000/svg">
<path d="M2 12.3768C7.47333 26.2123 12.9467 26.2123 18.42 12.3768C23.8933 -1.45875 29.3667 -1.45875 34.84 12.3768C40.3133 26.2123 45.7867 26.2123 51.26 12.3768C56.7333 -1.45875 62.2067 -1.45875 67.68 12.3768C73.1533 26.2123 78.6267 26.2123 84.1 12.3768C89.5733 -1.45875 95.0467 -1.45875 100.52 12.3768C105.993 26.2123 111.467 26.2123 116.94 12.3768C122.413 -1.45875 127.887 -1.45875 133.36 12.3768C138.833 26.2123 144.307 26.2123 149.78 12.3768C155.253 -1.45875 160.727 -1.45875 166.2 12.3768C171.673 26.2123 177.147 26.2123 182.62 12.3768C188.093 -1.45875 193.567 -1.45875 199.04 12.3768C204.513 26.2123 209.987 26.2123 215.46 12.3768C220.933 -1.45875 226.407 -1.45875 231.88 12.3768C237.353 26.2123 242.827 26.2123 248.3 12.3768C253.773 -1.45875 259.247 -1.45875 264.72 12.3768C270.193 26.2123 275.667 26.2123 281.14 12.3768C286.613 -1.45875 292.087 -1.45875 297.56 12.3768C303.033 26.2123 308.507 26.2123 313.98 12.3768C319.453 -1.45875 324.927 -1.45875 330.4 12.3768C335.873 26.2123 341.347 26.2123 346.82 12.3768C352.293 -1.45875 357.767 -1.45875 363.24 12.3768C368.713 26.2123 374.187 26.2123 379.66 12.3768C385.133 -1.45875 390.607 -1.45875 396.08 12.3768C401.553 26.2123 407.027 26.2123 412.5 12.3768C417.973 -1.45875 423.447 -1.45875 428.92 12.3768C434.393 26.2123 439.867 26.2123 445.34 12.3768C450.813 -1.45875 456.287 -1.45875 461.76 12.3768C467.233 26.2123 472.707 26.2123 478.18 12.3768C483.653 -1.45875 489.127 -1.45875 494.6 12.3768C500.073 26.2123 505.547 26.2123 511.02 12.3768C516.493 -1.45875 521.967 -1.45875 527.44 12.3768C532.913 26.2123 538.387 26.2123 543.86 12.3768C549.333 -1.45875 554.807 -1.45875 560.28 12.3768C565.753 26.2123 571.227 26.2123 576.7 12.3768C582.173 -1.45875 587.647 -1.45875 593.12 12.3768C598.593 26.2123 604.067 26.2123 609.54 12.3768C615.013 -1.45875 620.487 -1.45875 625.96 12.3768C631.433 26.2123 636.907 26.2123 642.38 12.3768C647.853 -1.45875 653.327 -1.45875 658.8 12.3768C664.273 26.2123 669.747 26.2123 675.22 12.3768C680.693 -1.45875 686.167 -1.45875 691.64 12.3768C697.113 26.2123 702.587 26.2123 708.06 12.3768C713.533 -1.45875 719.007 -1.45875 724.48 12.3768C729.953 26.2123 735.427 26.2123 740.9 12.3768C746.373 -1.45875 751.847 -1.45875 757.32 12.3768C762.793 26.2123 768.267 26.2123 773.74 12.3768C779.213 -1.45875 784.687 -1.45875 790.16 12.3768C795.633 26.2123 801.107 26.2123 806.58 12.3768C812.053 -1.45875 817.527 -1.45875 823 12.3768" stroke="#FF0000" stroke-width="3"/>
<path d="M823 12.3768C828.473 26.2123 833.947 26.2123 839.42 12.3768C844.893 -1.45875 850.367 -1.45875 855.84 12.3768C861.313 26.2123 866.787 26.2123 872.26 12.3768C877.733 -1.45875 883.207 -1.45875 888.68 12.3768C894.153 26.2123 899.627 26.2123 905.1 12.3768C910.573 -1.45875 916.047 -1.45875 921.52 12.3768C926.993 26.2123 932.467 26.2123 937.94 12.3768C943.413 -1.45875 948.887 -1.45875 954.36 12.3768C959.833 26.2123 965.307 26.2123 970.78 12.3768C976.253 -1.45875 981.727 -1.45875 987.2 12.3768C992.673 26.2123 998.147 26.2123 1003.62 12.3768C1009.09 -1.45875 1014.57 -1.45875 1020.04 12.3768C1025.51 26.2123 1030.99 26.2123 1036.46 12.3768C1041.93 -1.45875 1047.41 -1.45875 1052.88 12.3768C1058.35 26.2123 1063.83 26.2123 1069.3 12.3768C1074.77 -1.45875 1080.25 -1.45875 1085.72 12.3768C1091.19 26.2123 1096.67 26.2123 1102.14 12.3768C1107.61 -1.45875 1113.09 -1.45875 1118.56 12.3768C1124.03 26.2123 1129.51 26.2123 1134.98 12.3768C1140.45 -1.45875 1145.93 -1.45875 1151.4 12.3768C1156.87 26.2123 1162.35 26.2123 1167.82 12.3768C1173.29 -1.45875 1178.77 -1.45875 1184.24 12.3768C1189.71 26.2123 1195.19 26.2123 1200.66 12.3768C1206.13 -1.45875 1211.61 -1.45875 1217.08 12.3768C1222.55 26.2123 1228.03 26.2123 1233.5 12.3768C1238.97 -1.45875 1244.45 -1.45875 1249.92 12.3768C1255.39 26.2123 1260.87 26.2123 1266.34 12.3768C1271.81 -1.45875 1277.29 -1.45875 1282.76 12.3768C1288.23 26.2123 1293.71 26.2123 1299.18 12.3768C1304.65 -1.45875 1310.13 -1.45875 1315.6 12.3768C1321.07 26.2123 1326.55 26.2123 1332.02 12.3768C1337.49 -1.45875 1342.97 -1.45875 1348.44 12.3768C1353.91 26.2123 1359.39 26.2123 1364.86 12.3768C1370.33 -1.45875 1375.81 -1.45875 1381.28 12.3768C1386.75 26.2123 1392.23 26.2123 1397.7 12.3768C1403.17 -1.45875 1408.65 -1.45875 1414.12 12.3768C1419.59 26.2123 1425.07 26.2123 1430.54 12.3768C1436.01 -1.45875 1441.49 -1.45875 1446.96 12.3768C1452.43 26.2123 1457.91 26.2123 1463.38 12.3768C1468.85 -1.45875 1474.33 -1.45875 1479.8 12.3768C1485.27 26.2123 1490.75 26.2123 1496.22 12.3768C1501.69 -1.45875 1507.17 -1.45875 1512.64 12.3768C1518.11 26.2123 1523.59 26.2123 1529.06 12.3768C1534.53 -1.45875 1540.01 -1.45875 1545.48 12.3768C1550.95 26.2123 1556.43 26.2123 1561.9 12.3768C1567.37 -1.45875 1572.85 -1.45875 1578.32 12.3768C1583.79 26.2123 1589.27 26.2123 1594.74 12.3768C1600.21 -1.45875 1605.69 -1.45875 1611.16 12.3768C1616.63 26.2123 1622.11 26.2123 1627.58 12.3768C1633.05 -1.45875 1638.53 -1.45875 1644 12.3768" stroke="#FF0000" stroke-width="3"/>
<path d="M1644 12.3768C1649.47 26.2123 1654.95 26.2123 1660.42 12.3768C1665.89 -1.45875 1671.37 -1.45875 1676.84 12.3768C1682.31 26.2123 1687.79 26.2123 1693.26 12.3768C1698.73 -1.45875 1704.21 -1.45875 1709.68 12.3768C1715.15 26.2123 1720.63 26.2123 1726.1 12.3768C1731.57 -1.45875 1737.05 -1.45875 1742.52 12.3768C1747.99 26.2123 1753.47 26.2123 1758.94 12.3768C1764.41 -1.45875 1769.89 -1.45875 1775.36 12.3768C1780.83 26.2123 1786.31 26.2123 1791.78 12.3768C1797.25 -1.45875 1802.73 -1.45875 1808.2 12.3768C1813.67 26.2123 1819.15 26.2123 1824.62 12.3768C1830.09 -1.45875 1835.57 -1.45875 1841.04 12.3768C1846.51 26.2123 1851.99 26.2123 1857.46 12.3768C1862.93 -1.45875 1868.41 -1.45875 1873.88 12.3768C1879.35 26.2123 1884.83 26.2123 1890.3 12.3768C1895.77 -1.45875 1901.25 -1.45875 1906.72 12.3768C1912.19 26.2123 1917.67 26.2123 1923.14 12.3768C1928.61 -1.45875 1934.09 -1.45875 1939.56 12.3768C1945.03 26.2123 1950.51 26.2123 1955.98 12.3768C1961.45 -1.45875 1966.93 -1.45875 1972.4 12.3768C1977.87 26.2123 1983.35 26.2123 1988.82 12.3768C1994.29 -1.45875 1999.77 -1.45875 2005.24 12.3768C2010.71 26.2123 2016.19 26.2123 2021.66 12.3768C2027.13 -1.45875 2032.61 -1.45875 2038.08 12.3768C2043.55 26.2123 2049.03 26.2123 2054.5 12.3768C2059.97 -1.45875 2065.45 -1.45875 2070.92 12.3768C2076.39 26.2123 2081.87 26.2123 2087.34 12.3768C2092.81 -1.45875 2098.29 -1.45875 2103.76 12.3768C2109.23 26.2123 2114.71 26.2123 2120.18 12.3768C2125.65 -1.45875 2131.13 -1.45875 2136.6 12.3768C2142.07 26.2123 2147.55 26.2123 2153.02 12.3768C2158.49 -1.45875 2163.97 -1.45875 2169.44 12.3768C2174.91 26.2123 2180.39 26.2123 2185.86 12.3768C2191.33 -1.45875 2196.81 -1.45875 2202.28 12.3768C2207.75 26.2123 2213.23 26.2123 2218.7 12.3768C2224.17 -1.45875 2229.65 -1.45875 2235.12 12.3768C2240.59 26.2123 2246.07 26.2123 2251.54 12.3768C2257.01 -1.45875 2262.49 -1.45875 2267.96 12.3768C2273.43 26.2123 2278.91 26.2123 2284.38 12.3768C2289.85 -1.45875 2295.33 -1.45875 2300.8 12.3768C2306.27 26.2123 2311.75 26.2123 2317.22 12.3768C2322.69 -1.45875 2328.17 -1.45875 2333.64 12.3768C2339.11 26.2123 2344.59 26.2123 2350.06 12.3768C2355.53 -1.45875 2361.01 -1.45875 2366.48 12.3768C2371.95 26.2123 2377.43 26.2123 2382.9 12.3768C2388.37 -1.45875 2393.85 -1.45875 2399.32 12.3768C2404.79 26.2123 2410.27 26.2123 2415.74 12.3768C2421.21 -1.45875 2426.69 -1.45875 2432.16 12.3768C2437.63 26.2123 2443.11 26.2123 2448.58 12.3768C2454.05 -1.45875 2459.53 -1.45875 2465 12.3768" stroke="#FF0000" stroke-width="3"/>
<path d="M2465 12.3768C2470.47 26.2123 2475.95 26.2123 2481.42 12.3768C2486.89 -1.45875 2492.37 -1.45875 2497.84 12.3768C2503.31 26.2123 2508.79 26.2123 2514.26 12.3768C2519.73 -1.45875 2525.21 -1.45875 2530.68 12.3768C2536.15 26.2123 2541.63 26.2123 2547.1 12.3768C2552.57 -1.45875 2558.05 -1.45875 2563.52 12.3768C2568.99 26.2123 2574.47 26.2123 2579.94 12.3768C2585.41 -1.45875 2590.89 -1.45875 2596.36 12.3768C2601.83 26.2123 2607.31 26.2123 2612.78 12.3768C2618.25 -1.45875 2623.73 -1.45875 2629.2 12.3768C2634.67 26.2123 2640.15 26.2123 2645.62 12.3768C2651.09 -1.45875 2656.57 -1.45875 2662.04 12.3768C2667.51 26.2123 2672.99 26.2123 2678.46 12.3768C2683.93 -1.45875 2689.41 -1.45875 2694.88 12.3768C2700.35 26.2123 2705.83 26.2123 2711.3 12.3768C2716.77 -1.45875 2722.25 -1.45875 2727.72 12.3768C2733.19 26.2123 2738.67 26.2123 2744.14 12.3768C2749.61 -1.45875 2755.09 -1.45875 2760.56 12.3768C2766.03 26.2123 2771.51 26.2123 2776.98 12.3768C2782.45 -1.45875 2787.93 -1.45875 2793.4 12.3768C2798.87 26.2123 2804.35 26.2123 2809.82 12.3768C2815.29 -1.45875 2820.77 -1.45875 2826.24 12.3768C2831.71 26.2123 2837.19 26.2123 2842.66 12.3768C2848.13 -1.45875 2853.61 -1.45875 2859.08 12.3768C2864.55 26.2123 2870.03 26.2123 2875.5 12.3768C2880.97 -1.45875 2886.45 -1.45875 2891.92 12.3768C2897.39 26.2123 2902.87 26.2123 2908.34 12.3768C2913.81 -1.45875 2919.29 -1.45875 2924.76 12.3768C2930.23 26.2123 2935.71 26.2123 2941.18 12.3768C2946.65 -1.45875 2952.13 -1.45875 2957.6 12.3768C2963.07 26.2123 2968.55 26.2123 2974.02 12.3768C2979.49 -1.45875 2984.97 -1.45875 2990.44 12.3768C2995.91 26.2123 3001.39 26.2123 3006.86 12.3768C3012.33 -1.45875 3017.81 -1.45875 3023.28 12.3768C3028.75 26.2123 3034.23 26.2123 3039.7 12.3768C3045.17 -1.45875 3050.65 -1.45875 3056.12 12.3768C3061.59 26.2123 3067.07 26.2123 3072.54 12.3768C3078.01 -1.45875 3083.49 -1.45875 3088.96 12.3768C3094.43 26.2123 3099.91 26.2123 3105.38 12.3768C3110.85 -1.45875 3116.33 -1.45875 3121.8 12.3768C3127.27 26.2123 3132.75 26.2123 3138.22 12.3768C3143.69 -1.45875 3149.17 -1.45875 3154.64 12.3768C3160.11 26.2123 3165.59 26.2123 3171.06 12.3768C3176.53 -1.45875 3182.01 -1.45875 3187.48 12.3768C3192.95 26.2123 3198.43 26.2123 3203.9 12.3768C3209.37 -1.45875 3214.85 -1.45875 3220.32 12.3768C3225.79 26.2123 3231.27 26.2123 3236.74 12.3768C3242.21 -1.45875 3247.69 -1.45875 3253.16 12.3768C3258.63 26.2123 3264.11 26.2123 3269.58 12.3768C3275.05 -1.45875 3280.53 -1.45875 3286 12.3768" stroke="#FF0000" stroke-width="3"/>
<path d="M3286 12.3768C3291.47 26.2123 3296.95 26.2123 3302.42 12.3768C3307.89 -1.45875 3313.37 -1.45875 3318.84 12.3768C3324.31 26.2123 3329.79 26.2123 3335.26 12.3768C3340.73 -1.45875 3346.21 -1.45875 3351.68 12.3768C3357.15 26.2123 3362.63 26.2123 3368.1 12.3768C3373.57 -1.45875 3379.05 -1.45875 3384.52 12.3768C3389.99 26.2123 3395.47 26.2123 3400.94 12.3768C3406.41 -1.45875 3411.89 -1.45875 3417.36 12.3768C3422.83 26.2123 3428.31 26.2123 3433.78 12.3768C3439.25 -1.45875 3444.73 -1.45875 3450.2 12.3768C3455.67 26.2123 3461.15 26.2123 3466.62 12.3768C3472.09 -1.45875 3477.57 -1.45875 3483.04 12.3768C3488.51 26.2123 3493.99 26.2123 3499.46 12.3768C3504.93 -1.45875 3510.41 -1.45875 3515.88 12.3768C3521.35 26.2123 3526.83 26.2123 3532.3 12.3768C3537.77 -1.45875 3543.25 -1.45875 3548.72 12.3768C3554.19 26.2123 3559.67 26.2123 3565.14 12.3768C3570.61 -1.45875 3576.09 -1.45875 3581.56 12.3768C3587.03 26.2123 3592.51 26.2123 3597.98 12.3768C3603.45 -1.45875 3608.93 -1.45875 3614.4 12.3768C3619.87 26.2123 3625.35 26.2123 3630.82 12.3768C3636.29 -1.45875 3641.77 -1.45875 3647.24 12.3768C3652.71 26.2123 3658.19 26.2123 3663.66 12.3768C3669.13 -1.45875 3674.61 -1.45875 3680.08 12.3768C3685.55 26.2123 3691.03 26.2123 3696.5 12.3768C3701.97 -1.45875 3707.45 -1.45875 3712.92 12.3768C3718.39 26.2123 3723.87 26.2123 3729.34 12.3768C3734.81 -1.45875 3740.29 -1.45875 3745.76 12.3768C3751.23 26.2123 3756.71 26.2123 3762.18 12.3768C3767.65 -1.45875 3773.13 -1.45875 3778.6 12.3768C3784.07 26.2123 3789.55 26.2123 3795.02 12.3768C3800.49 -1.45875 3805.97 -1.45875 3811.44 12.3768C3816.91 26.2123 3822.39 26.2123 3827.86 12.3768C3833.33 -1.45875 3838.81 -1.45875 3844.28 12.3768C3849.75 26.2123 3855.23 26.2123 3860.7 12.3768C3866.17 -1.45875 3871.65 -1.45875 3877.12 12.3768C3882.59 26.2123 3888.07 26.2123 3893.54 12.3768C3899.01 -1.45875 3904.49 -1.45875 3909.96 12.3768C3915.43 26.2123 3920.91 26.2123 3926.38 12.3768C3931.85 -1.45875 3937.33 -1.45875 3942.8 12.3768C3948.27 26.2123 3953.75 26.2123 3959.22 12.3768C3964.69 -1.45875 3970.17 -1.45875 3975.64 12.3768C3981.11 26.2123 3986.59 26.2123 3992.06 12.3768C3997.53 -1.45875 4003.01 -1.45875 4008.48 12.3768C4013.95 26.2123 4019.43 26.2123 4024.9 12.3768C4030.37 -1.45875 4035.85 -1.45875 4041.32 12.3768C4046.79 26.2123 4052.27 26.2123 4057.74 12.3768C4063.21 -1.45875 4068.69 -1.45875 4074.16 12.3768C4079.63 26.2123 4085.11 26.2123 4090.58 12.3768C4096.05 -1.45875 4101.53 -1.45875 4107 12.3768" stroke="#FF0000" stroke-width="3"/>
<path d="M4107 12.3768C4112.47 26.2123 4117.95 26.2123 4123.42 12.3768C4128.89 -1.45875 4134.37 -1.45875 4139.84 12.3768C4145.31 26.2123 4150.79 26.2123 4156.26 12.3768C4161.73 -1.45875 4167.21 -1.45875 4172.68 12.3768C4178.15 26.2123 4183.63 26.2123 4189.1 12.3768C4194.57 -1.45875 4200.05 -1.45875 4205.52 12.3768C4210.99 26.2123 4216.47 26.2123 4221.94 12.3768C4227.41 -1.45875 4232.89 -1.45875 4238.36 12.3768C4243.83 26.2123 4249.31 26.2123 4254.78 12.3768C4260.25 -1.45875 4265.73 -1.45875 4271.2 12.3768C4276.67 26.2123 4282.15 26.2123 4287.62 12.3768C4293.09 -1.45875 4298.57 -1.45875 4304.04 12.3768C4309.51 26.2123 4314.99 26.2123 4320.46 12.3768C4325.93 -1.45875 4331.41 -1.45875 4336.88 12.3768C4342.35 26.2123 4347.83 26.2123 4353.3 12.3768C4358.77 -1.45875 4364.25 -1.45875 4369.72 12.3768C4375.19 26.2123 4380.67 26.2123 4386.14 12.3768C4391.61 -1.45875 4397.09 -1.45875 4402.56 12.3768C4408.03 26.2123 4413.51 26.2123 4418.98 12.3768C4424.45 -1.45875 4429.93 -1.45875 4435.4 12.3768C4440.87 26.2123 4446.35 26.2123 4451.82 12.3768C4457.29 -1.45875 4462.77 -1.45875 4468.24 12.3768C4473.71 26.2123 4479.19 26.2123 4484.66 12.3768C4490.13 -1.45875 4495.61 -1.45875 4501.08 12.3768C4506.55 26.2123 4512.03 26.2123 4517.5 12.3768C4522.97 -1.45875 4528.45 -1.45875 4533.92 12.3768C4539.39 26.2123 4544.87 26.2123 4550.34 12.3768C4555.81 -1.45875 4561.29 -1.45875 4566.76 12.3768C4572.23 26.2123 4577.71 26.2123 4583.18 12.3768C4588.65 -1.45875 4594.13 -1.45875 4599.6 12.3768C4605.07 26.2123 4610.55 26.2123 4616.02 12.3768C4621.49 -1.45875 4626.97 -1.45875 4632.44 12.3768C4637.91 26.2123 4643.39 26.2123 4648.86 12.3768C4654.33 -1.45875 4659.81 -1.45875 4665.28 12.3768C4670.75 26.2123 4676.23 26.2123 4681.7 12.3768C4687.17 -1.45875 4692.65 -1.45875 4698.12 12.3768C4703.59 26.2123 4709.07 26.2123 4714.54 12.3768C4720.01 -1.45875 4725.49 -1.45875 4730.96 12.3768C4736.43 26.2123 4741.91 26.2123 4747.38 12.3768C4752.85 -1.45875 4758.33 -1.45875 4763.8 12.3768C4769.27 26.2123 4774.75 26.2123 4780.22 12.3768C4785.69 -1.45875 4791.17 -1.45875 4796.64 12.3768C4802.11 26.2123 4807.59 26.2123 4813.06 12.3768C4818.53 -1.45875 4824.01 -1.45875 4829.48 12.3768C4834.95 26.2123 4840.43 26.2123 4845.9 12.3768C4851.37 -1.45875 4856.85 -1.45875 4862.32 12.3768C4867.79 26.2123 4873.27 26.2123 4878.74 12.3768C4884.21 -1.45875 4889.69 -1.45875 4895.16 12.3768C4900.63 26.2123 4906.11 26.2123 4911.58 12.3768C4917.05 -1.45875 4922.53 -1.45875 4928 12.3768" stroke="#FF0000" stroke-width="3"/>
</svg>
