<?xml version="1.0" encoding="UTF-8"?><svg id="Layer_2" xmlns="http://www.w3.org/2000/svg" viewBox="0 0 35.84 56.34"><defs><style>.cls-1{fill:#231f20;}</style></defs><g id="Layer_1-2"><path class="cls-1" d="m10.82,43.51C5.25,35.43,0,33.74,0,32.12c0-.48.32-.8.89-.8,1.53,0,3.15.4,4.68.4.97,0,1.21-.64,1.21-1.37-.08-9.28-1.13-25.67-1.13-28.98,0-.72.4-1.37,1.13-1.37,2.67,0,6.78.48,11.14.48s8.48-.48,11.14-.48c.73,0,1.13.64,1.13,1.37,0,3.31-1.13,19.7-1.13,28.98,0,.73.24,1.37,1.21,1.37,1.53,0,3.15-.4,4.68-.4.56,0,.89.32.89.8,0,1.62-5.25,3.31-10.82,11.38-5.17,7.59-4.84,12.84-7.1,12.84s-1.94-5.25-7.11-12.84Z"/></g></svg>