<?xml version="1.0" encoding="utf-8"?>
<!-- Generator: Adobe Illustrator 27.5.0, SVG Export Plug-In . SVG Version: 6.00 Build 0)  -->
<svg version="1.1" id="Layer_1" xmlns="http://www.w3.org/2000/svg" xmlns:xlink="http://www.w3.org/1999/xlink" x="0px" y="0px"
	 viewBox="0 0 60 60" style="enable-background:new 0 0 60 60;" xml:space="preserve">
<path d="M-77.9,5.9l25.4,50.8c1,2.1,4,2.1,5.1,0l25.4-50.8c0.9-1.9-0.4-4.1-2.5-4.1h-50.8C-77.5,1.8-78.9,4-77.9,5.9z"/>
<g>
	<path d="M28,46.8C22.2,33.5,17.4,23.5,7.7,15c-1.5-1.2-1.8-1.6-1.8-2.4c0-0.6,0.6-1,1.5-1c7,0,19.7,9.3,22.5,9.3s15.6-9.3,22.5-9.3
		c0.9,0,1.5,0.4,1.5,1c0,0.8-0.4,1.2-1.8,2.4C42.6,23.5,37.8,33.5,32,46.8c-0.5,1.1-1.2,1.6-2,1.6C29.2,48.4,28.5,47.9,28,46.8z"/>
</g>
</svg>
