<?xml version="1.0" encoding="UTF-8"?><svg id="Layer_2" xmlns="http://www.w3.org/2000/svg" viewBox="0 0 56.93 34.99"><defs><style>.cls-1{fill:#231f20;}</style></defs><g id="Layer_1-2"><path class="cls-1" d="m47.37,0c.68,0,1.3.34,1.3.96,0,5.05-.34,8.2-.34,12.84,0,1.1.75,1.37,1.57,1.37,1.78,0,4.17-.21,6.02-.21.68,0,1.02.41,1.02.96s-.34,1.1-1.09,1.5c-5.81,3.22-13.05,6.08-24.74,16.34-.89.68-1.84,1.23-2.6,1.23-.82,0-1.78-.62-2.6-1.23C14.28,23.51,7.04,20.36,1.16,17.42c-.82-.41-1.16-.96-1.16-1.5s.41-.96,1.09-.96c1.78,0,4.17.21,6.01.21.75,0,1.57-.27,1.57-1.37,0-4.65-.41-7.79-.34-12.84-.07-.62.55-.96,1.3-.96,2.39,0,6.49.55,18.8.55s16.47-.55,18.93-.55Z"/></g></svg>